<svg xmlns="http://www.w3.org/2000/svg" viewBox="0 0 1080 1080"><defs><style>.cls-1{fill:#00a4ff;}</style></defs><g id="Capa_2" data-name="Capa 2"><path class="cls-1" d="M78.18,469.06c-4.88,0-8.56-1.14-11.07-3.43s-3.76-5.45-3.76-9.46q0-6.24,3.76-9.67c2.51-2.3,6.19-3.44,11.07-3.44s8.56,1.14,11.07,3.44S93,452,93,456.17q0,6-3.76,9.46T78.18,469.06ZM66.89,608.79V491.85H89.36V608.79Z"/><path class="cls-1" d="M119.77,608.79V491.85h18.7l1.61,12.9h1.18a43.13,43.13,0,0,1,15.21-11.07A46.08,46.08,0,0,1,174.8,490a37.9,37.9,0,0,1,17.95,4.14q7.84,4.14,12.3,13.38t4.46,24.72v76.53H187.37V534q0-13.65-5.21-19T168,509.69a30.12,30.12,0,0,0-9.09,1.51,32.4,32.4,0,0,0-9.08,4.56,30.42,30.42,0,0,0-7.63,8.12v84.91Zm134.13,0V534q0-13.65-5.53-19T234,509.69a32.43,32.43,0,0,0-19.19,6.61,30.64,30.64,0,0,0-8.11,9.51l-4.95-16.44q8.28-10.64,18.44-15A50.21,50.21,0,0,1,240.14,490a40.54,40.54,0,0,1,18.65,4.19q8.22,4.2,12.9,13.6t4.67,25.1v75.88Z"/><path class="cls-1" d="M305.59,656.08V491.85h19l1.5,12.68h1.19a38.71,38.71,0,0,1,13.32-10.48,41.61,41.61,0,0,1,18.6-4,48.21,48.21,0,0,1,23.37,5.75q10.59,5.76,16.93,18.49t6.34,33.91q0,20.75-6.88,34.71a45.64,45.64,0,0,1-20.31,21q-13.44,7-33.32,7c-2.94,0-5.91-.15-8.92-.43s-5.8-.54-8.38-.76v46.44Zm40-62.88q18.69,0,28.1-10.1t9.41-33.1q0-16-3.77-24.94t-10.53-12.57a31.8,31.8,0,0,0-15.37-3.66,34.47,34.47,0,0,0-13.81,3,27.71,27.71,0,0,0-11.55,9.51v70.07c2.36.43,5.14.85,8.33,1.24A75.65,75.65,0,0,0,345.58,593.2Z"/><path class="cls-1" d="M467.45,610.83a45,45,0,0,1-19.83-4.19A30.06,30.06,0,0,1,434,593q-4.95-9.4-4.95-25v-76.2h22.47v75q0,13.65,6,18.92t15.42,5.26a38.36,38.36,0,0,0,10.05-1.4,37.19,37.19,0,0,0,10-4.4,30.6,30.6,0,0,0,8.49-8V491.85h22.36V608.79h-18.6l-1.61-12.47h-1.18a48.57,48.57,0,0,1-16.18,10.85A49.46,49.46,0,0,1,467.45,610.83Z"/><path class="cls-1" d="M606.42,610.93q-19.35,0-32.3-6.28A40.92,40.92,0,0,1,554.72,585q-6.45-13.38-6.45-34.66,0-20.1,6-33.59t17-20.1q11.07-6.6,26.55-6.61,14.94,0,25.42,6.67t15.91,20.15q5.42,13.49,5.42,34v6.45H560.85V543.12H627.7l-4.3,2.36q0-14.84-3-23.59t-8.76-12.63a24.72,24.72,0,0,0-14.13-3.87,25.87,25.87,0,0,0-14.24,3.82q-6,3.81-9.19,12.63t-3.23,23.64v8.38q0,14.52,4,23.17a24.12,24.12,0,0,0,12.52,12.41q8.55,3.76,22,3.76A88,88,0,0,0,623.4,592q7.3-1.18,15.16-3.23v17.63A131.69,131.69,0,0,1,622,609.86,114.06,114.06,0,0,1,606.42,610.93Z"/><path class="cls-1" d="M697.34,610.93a122.77,122.77,0,0,1-17.62-1.23,114.61,114.61,0,0,1-16.34-3.6V588.69a112.72,112.72,0,0,0,33.86,5.16q14.07,0,20.26-4.63a15,15,0,0,0,6.18-12.68q0-6.87-3.55-10.48c-2.37-2.4-6.41-4.24-12.15-5.53l-16.76-3.12Q675.1,554,668,546t-7.09-21A30.91,30.91,0,0,1,673,499.8Q685.09,490,710,490a120.79,120.79,0,0,1,15.1.92,99.2,99.2,0,0,1,13.59,2.63v17.3A100.52,100.52,0,0,0,724.8,508a109.48,109.48,0,0,0-14.34-.92q-10.55,0-16.77,2.37t-8.87,6.28a15.25,15.25,0,0,0-2.63,8.66,14.48,14.48,0,0,0,3.33,9.72q3.33,3.93,11.93,5.86l16.77,3.22q16,3.22,23.37,10.86t7.37,21.6q0,16.23-12.26,25.74T697.34,610.93Z"/><path class="cls-1" d="M751.83,510V491.85h78.35V510Zm60.73,100.82q-18.91,0-29.29-9.62T772.9,570.63V491.85l3.87-42.13h18.59V567q0,13.86,5.54,19.4t17,5.53a48.68,48.68,0,0,0,6.4-.43c2.18-.28,4.6-.68,7.25-1.18v18.38q-4.41,1-9.29,1.56A82.07,82.07,0,0,1,812.56,610.83Z"/><path class="cls-1" d="M879.08,610.72q-16.87,0-26.49-8.76T843,578.26q0-15.59,10.53-24.4T887.25,543l29.34-3,2.26,13.86-29.66,2.91Q876.6,558,871,562.84t-5.58,13.38q0,8.7,5,13.38t15,4.68a35.8,35.8,0,0,0,13.71-2.8,32.63,32.63,0,0,0,12.41-9.35v-49q0-9.78-3.12-15.31A17,17,0,0,0,899,510q-6.45-2.25-16.45-2.25a107.36,107.36,0,0,0-15,1.18,98.7,98.7,0,0,0-16.6,3.87V495.18a97.52,97.52,0,0,1,17.3-3.87A131.59,131.59,0,0,1,886,490q16,0,26.6,4.14A29.51,29.51,0,0,1,928.36,508q5.22,9.67,5.22,26.44v74.38H915l-1.61-12.58h-1.29a35,35,0,0,1-14.19,10.86A47.69,47.69,0,0,1,879.08,610.72Z"/><path class="cls-1" d="M962.81,608.79V491.85H981.4l1.72,15.48h1.29A36.83,36.83,0,0,1,999,494.75a42.57,42.57,0,0,1,18.48-4.19c1.87,0,3.57.07,5.11.22a36.91,36.91,0,0,1,4.35.64V512a47.72,47.72,0,0,0-5.21-.59c-1.76-.11-3.53-.16-5.32-.16a41.34,41.34,0,0,0-11.34,1.66,40.73,40.73,0,0,0-11,5,33.38,33.38,0,0,0-8.81,8.28v82.65Z"/><rect class="cls-1" x="842.94" y="632.6" width="174.42" height="19.23" rx="9.61"/></g></svg>