<?xml version="1.0" encoding="UTF-8"?>
<svg id="Capa_1" data-name="Capa 1" xmlns="http://www.w3.org/2000/svg" viewBox="0 0 986.89 986.89">
  <defs>
    <style>
      .cls-1 {
        fill: #fff;
      }
    </style>
  </defs>
  <path class="cls-1" d="m307.16,674.87l21.57-21.57c.88-.88,2.3-.88,3.18,0l21.57,21.57c1.41,1.41,3.83.41,3.83-1.59v-42.95c0-3.1-2.51-5.61-5.61-5.61h-42.76c-3.1,0-5.61,2.51-5.61,5.61v42.95c0,2,2.42,3,3.83,1.59Z"/>
  <g>
    <path class="cls-1" d="m151.76,607.41c-12.42,0-23.49-2.18-33.2-6.53-9.72-4.35-17.38-10.81-23-19.39-5.62-8.57-8.43-19.28-8.43-32.13,0-10.81,1.98-19.9,5.96-27.25,3.97-7.35,9.38-13.26,16.22-17.74,6.84-4.48,14.64-7.86,23.38-10.14,8.74-2.28,17.93-3.89,27.56-4.82,11.32-1.18,20.45-2.3,27.37-3.36,6.93-1.05,11.95-2.64,15.08-4.75,3.12-2.11,4.69-5.24,4.69-9.38v-.76c0-8.03-2.52-14.24-7.54-18.63-5.03-4.39-12.15-6.59-21.35-6.59-9.72,0-17.45,2.13-23.19,6.4-4.59,3.41-7.93,7.5-10.04,12.27-.98,2.22-3.21,3.61-5.62,3.41l-39-3.17c-3.57-.29-5.99-3.81-4.93-7.23,2.81-9.05,7.21-17.06,13.21-24.05,7.43-8.66,17.05-15.34,28.83-20.02,11.79-4.69,25.45-7.03,41-7.03,10.81,0,21.18,1.27,31.11,3.8,9.93,2.53,18.76,6.46,26.49,11.79,7.73,5.32,13.83,12.15,18.31,20.47,4.48,8.32,6.72,18.27,6.72,29.84v125.68c0,3.1-2.51,5.61-5.61,5.61h-39.97c-3.1,0-5.61-2.51-5.61-5.61v-21.38h-1.52c-3.13,6.08-7.31,11.43-12.55,16.03-5.24,4.61-11.53,8.2-18.88,10.77-7.35,2.58-15.84,3.86-25.47,3.86Zm15.46-37.26c7.94,0,14.95-1.58,21.04-4.75,6.08-3.17,10.86-7.46,14.32-12.86,3.46-5.41,5.2-11.53,5.2-18.38v-12.57c0-3.59-3.47-6.16-6.91-5.11h0c-2.91.89-6.19,1.69-9.82,2.41-3.63.72-7.27,1.35-10.9,1.9-3.63.55-6.93,1.04-9.88,1.46-6.34.93-11.87,2.41-16.6,4.44-4.73,2.03-8.41,4.75-11.03,8.17-2.62,3.42-3.93,7.67-3.93,12.74,0,7.35,2.68,12.95,8.05,16.79,5.36,3.85,12.19,5.77,20.47,5.77Z"/>
    <path class="cls-1" d="m357.32,349.81v248.32c0,3.1-2.51,5.61-5.61,5.61h-42.76c-3.1,0-5.61-2.51-5.61-5.61v-248.32c0-3.1,2.51-5.61,5.61-5.61h42.76c3.1,0,5.61,2.51,5.61,5.61Z"/>
    <path class="cls-1" d="m427.52,383.99c-8.03,0-14.89-2.68-20.59-8.05-5.7-5.36-8.55-11.81-8.55-19.33s2.85-13.83,8.55-19.2c5.7-5.36,12.57-8.05,20.59-8.05s14.89,2.68,20.59,8.05c5.7,5.37,8.55,11.77,8.55,19.2s-2.85,13.96-8.55,19.33c-5.7,5.37-12.57,8.05-20.59,8.05Zm-27.12,214.14v-183.43c0-3.1,2.51-5.61,5.61-5.61h42.76c3.1,0,5.61,2.51,5.61,5.61v183.43c0,3.1-2.51,5.61-5.61,5.61h-42.76c-3.1,0-5.61-2.51-5.61-5.61Z"/>
    <path class="cls-1" d="m551.46,491.2v106.92c0,3.1-2.51,5.61-5.61,5.61h-42.76c-3.1,0-5.61-2.51-5.61-5.61v-183.43c0-3.1,2.51-5.61,5.61-5.61h40.23c3.1,0,5.61,2.51,5.61,5.61v28.73h2.28c4.31-11.32,11.53-20.3,21.67-26.93,10.14-6.63,22.43-9.95,36.88-9.95,13.52,0,25.3,2.96,35.36,8.87,10.05,5.91,17.87,14.34,23.45,25.28,5.58,10.94,8.36,23.97,8.36,39.1v118.33c0,3.1-2.51,5.61-5.61,5.61h-42.76c-3.1,0-5.61-2.51-5.61-5.61v-108.7c.08-11.91-2.96-21.23-9.13-27.94-6.17-6.72-14.66-10.08-25.47-10.08-7.27,0-13.67,1.56-19.2,4.69-5.53,3.13-9.84,7.67-12.93,13.62-3.08,5.96-4.67,13.12-4.75,21.48Z"/>
    <path class="cls-1" d="m803.96,607.54c-19.69,0-36.69-4.2-51.01-12.61-14.32-8.41-25.37-20.15-33.14-35.23-7.78-15.08-11.66-32.59-11.66-52.53s3.88-37.7,11.66-52.78c7.77-15.08,18.82-26.82,33.14-35.23,14.32-8.41,31.32-12.61,51.01-12.61s36.69,4.2,51.01,12.61c14.32,8.41,25.37,20.15,33.14,35.23,7.77,15.08,11.66,32.68,11.66,52.78s-3.89,37.45-11.66,52.53c-7.77,15.08-18.82,26.83-33.14,35.23-14.32,8.41-31.33,12.61-51.01,12.61Zm.25-41.82c8.95,0,16.43-2.55,22.43-7.67,6-5.11,10.54-12.1,13.62-20.97,3.08-8.87,4.63-18.97,4.63-30.29s-1.54-21.42-4.63-30.29c-3.09-8.87-7.62-15.88-13.62-21.04-6-5.15-13.48-7.73-22.43-7.73s-16.63,2.58-22.75,7.73c-6.13,5.15-10.73,12.17-13.81,21.04-3.09,8.87-4.63,18.97-4.63,30.29s1.54,21.42,4.63,30.29c3.08,8.87,7.69,15.86,13.81,20.97,6.12,5.11,13.71,7.67,22.75,7.67Z"/>
  </g>
</svg>