<svg id="Capa_1" data-name="Capa 1" xmlns="http://www.w3.org/2000/svg" viewBox="0 0 1080 1080"><defs><style>.cls-1{fill:#e00097;}</style></defs><g id="Capa_2" data-name="Capa 2"><g id="Capa_1-2" data-name="Capa 1-2"><g id="EXTENSION_LETRA" data-name="EXTENSION LETRA"><path class="cls-1" d="M456.32,330.81v83.67H372.64V247.12h0A83.68,83.68,0,0,1,456.32,330.81Z"/></g><g id="CIRCULO"><path class="cls-1" d="M791,623.69c0,115.55-93.65,209.19-209.2,209.19s-209.2-93.64-209.2-209.19V498.17h83.68V623.69A125.53,125.53,0,1,0,581.85,498.17H456.32V414.48H581.84C697.39,414.48,791,508.14,791,623.69Z"/></g><g id="PIXEL_IZQUIERDO" data-name="PIXEL IZQUIERDO"><rect class="cls-1" x="288.96" y="414.48" width="83.68" height="83.68"/></g><g id="SONRISA"><path class="cls-1" d="M641,623.69a20.94,20.94,0,0,1,19.76,27.93,83.71,83.71,0,0,1-157.81,0,21,21,0,0,1,12.84-26.75,21.32,21.32,0,0,1,6.89-1.18h0a21.16,21.16,0,0,1,19.81,14.22,41.87,41.87,0,0,0,78.73,0,21.17,21.17,0,0,1,19.81-14.22Z"/></g><g id="PIXEL_SUPERIOR" data-name="PIXEL SUPERIOR"><rect class="cls-1" x="498.16" y="288.97" width="83.68" height="83.68"/></g></g></g></svg>