<svg id="Capa_1" data-name="Capa 1" xmlns="http://www.w3.org/2000/svg" viewBox="0 0 1080 1080"><defs><style>.cls-1{fill:#e00097;}</style></defs><g id="Capa_2" data-name="Capa 2"><g id="Capa_1-2" data-name="Capa 1-2"><path class="cls-1" d="M348.86,753.65A36.9,36.9,0,0,0,326,761.06V738.8A14.85,14.85,0,0,0,311.12,724h0v66.17c0,20.67,16.65,37.83,37.32,37.71a37.1,37.1,0,0,0,.42-74.19ZM350,812.93a22.26,22.26,0,1,1,20.38-24,22,22,0,0,1,0,3.63A22.27,22.27,0,0,1,350,812.93Z"/><path class="cls-1" d="M554.17,792.36a37.11,37.11,0,0,0-35.44-38.7c-.47,0-.93,0-1.4,0-20.68-.12-37.32,17-37.32,37.7V857.5h0a14.83,14.83,0,0,0,14.84-14.83h0V820.4a37.09,37.09,0,0,0,59.32-28Zm-14.88-3.44a22.26,22.26,0,1,1-24-20.38,21.76,21.76,0,0,1,3.61,0A22.26,22.26,0,0,1,539.29,788.92Z"/><path class="cls-1" d="M580.5,754.71v72.07H565.62V769.59A14.88,14.88,0,0,1,580.5,754.71Z"/><circle class="cls-1" cx="573.85" cy="735" r="11.13"/><path class="cls-1" d="M768.88,724.8V826.08H754V739.61A14.84,14.84,0,0,1,768.88,724.8Z"/><path class="cls-1" d="M469.35,796.31a37.74,37.74,0,0,0,0-11.13,37.11,37.11,0,0,0-35.89-31.53h-1.59a37.1,37.1,0,0,0,.81,74.19,44.39,44.39,0,0,0,29.57-11.24l-10.51-10.52A29.57,29.57,0,0,1,433.3,813h-1.22a22.28,22.28,0,0,1-20.95-16.68ZM432.66,768.5a22.26,22.26,0,0,1,21.54,16.7H411.11A22.27,22.27,0,0,1,432.66,768.5Z"/><path class="cls-1" d="M742.21,796.29a37.09,37.09,0,0,0-35.88-42.65h-1.6a37.09,37.09,0,0,0,.8,74.18,44.3,44.3,0,0,0,29.57-11.24l-10.52-10.51A29.59,29.59,0,0,1,706.14,813h-1.22A22.29,22.29,0,0,1,684,796.29Zm-36.68-27.82a22.26,22.26,0,0,1,21.53,16.69H684a22.26,22.26,0,0,1,21.56-16.69Z"/><path class="cls-1" d="M633,790.74c0,19.9-16.66,36-37.2,36V811.89c12.32,0,22.32-9.47,22.32-21.15s-10-21.15-22.32-21.15V754.71C616.37,754.71,633,770.84,633,790.74Z"/><path class="cls-1" d="M624.06,790.74c0,19.9,16.66,36,37.2,36V811.89c-12.32,0-22.32-9.47-22.32-21.15s10-21.15,22.32-21.15V754.71C640.72,754.71,624.06,770.84,624.06,790.74Z"/><g id="EXTENSION_LETRA" data-name="EXTENSION LETRA"><path class="cls-1" d="M449.58,288.2v65.69H383.89V222.5h0A65.69,65.69,0,0,1,449.58,288.2Z"/></g><g id="CIRCULO"><path class="cls-1" d="M712.36,518.13a164.24,164.24,0,0,1-328.47,0V419.59h65.69v98.54a98.55,98.55,0,1,0,98.55-98.54H449.58v-65.7h98.54A164.23,164.23,0,0,1,712.36,518.13Z"/></g><g id="PIXEL_IZQUIERDO" data-name="PIXEL IZQUIERDO"><rect class="cls-1" x="318.19" y="353.89" width="65.7" height="65.7"/></g><g id="SONRISA"><path class="cls-1" d="M594.58,518.13a16.45,16.45,0,0,1,15.52,21.93,65.73,65.73,0,0,1-123.9,0,16.48,16.48,0,0,1,15.49-21.93h0a16.6,16.6,0,0,1,15.55,11.17,32.87,32.87,0,0,0,61.81,0,16.63,16.63,0,0,1,15.56-11.17Z"/></g><g id="PIXEL_SUPERIOR" data-name="PIXEL SUPERIOR"><rect class="cls-1" x="482.43" y="255.35" width="65.7" height="65.7"/></g></g></g></svg>