<svg xmlns="http://www.w3.org/2000/svg" viewBox="0 0 334.8 390.6"><defs><style>.cls-1{fill:#e10098;}</style></defs><g id="Capa_2" data-name="Capa 2"><g id="Capa_2-2" data-name="Capa 2"><path id="EXTENSION_LETRA" data-name="EXTENSION LETRA" class="cls-1" d="M111.6,55.8v55.8H55.8V0h0A55.8,55.8,0,0,1,111.6,55.8Z"/><path id="CIRCULO" class="cls-1" d="M334.8,251.1a139.5,139.5,0,0,1-279,0V167.4h55.8v83.7a83.7,83.7,0,1,0,83.7-83.7H111.6V111.6h83.7A139.49,139.49,0,0,1,334.8,251.1Z"/><rect id="PIXEL_IZQUIERDO" data-name="PIXEL IZQUIERDO" class="cls-1" y="111.6" width="55.8" height="55.8"/><path id="SONRISA" class="cls-1" d="M234.76,251.1a14,14,0,0,1,13.16,18.62,55.83,55.83,0,0,1-105.24,0,14,14,0,0,1,13.16-18.62h0a14.1,14.1,0,0,1,13.21,9.48,27.91,27.91,0,0,0,52.5,0,14.1,14.1,0,0,1,13.21-9.48Z"/><rect id="PIXEL_SUPERIOR" data-name="PIXEL SUPERIOR" class="cls-1" x="139.5" y="27.9" width="55.8" height="55.8"/></g></g></svg>