<svg id="Capa_1" data-name="Capa 1" xmlns="http://www.w3.org/2000/svg" viewBox="0 0 1080 1080"><defs><style>.cls-1{fill:#f7ad4c;}.cls-2{fill:#008fd2;}</style></defs><path class="cls-1" d="M64.59,540C64.59,672.75,172.2,780.37,305,780.37a239.42,239.42,0,0,0,159.14-60.24q4.28-1.57,8.56-3.1c14.85-5.27,29.89-9.87,45.13-13.67a270.14,270.14,0,0,1-23.14,26.32A268.18,268.18,0,1,1,564.5,472h-29C506.21,372.35,414.07,299.63,305,299.63,172.2,299.63,64.59,407.25,64.59,540Z"/><path class="cls-2" d="M670.56,669.73a422,422,0,0,0-179.29,13.65c-36.56,11-71.47,26.87-107.83,38.49s-75.18,18.93-112.72,12c-20.17-3.71-39.39-11.49-57.24-21.48a256.44,256.44,0,0,1-46.39-32.92c33.73,15.1,75.57,15.95,111.59,10.68,38.05-5.57,74-19.93,109.66-33.72,17.9-6.92,35.86-13.77,54.21-19.43,39.17-12.06,77.95-16.57,118.58-9.28q4.22.75,8.42,1.65C605.15,637,639,651.68,670.56,669.73Z"/><path class="cls-2" d="M268.49,652.56c-36.5-12.13-69.86-37.09-98-63.36-8.16-7.64-17.43-16.27-28.59-15.54-13.36.88-22.28,16.21-20.18,29.44S134,627,145.13,634.33c35.35,23.35,81.1,21.22,123.36,18.23Z"/><path class="cls-2" d="M265.17,619.79C232.54,594.66,200,564.2,175.3,531.08c-22.21-29.81-44.16-80.46-19-115.24,15.54-21.51,53.06-31.94,76.07-17a36,36,0,0,1,12.19,13.36c10,19,1.65,43.85-5.17,62.44-5.94,16.16-12.82,32.76-14.1,50.12C222.65,560.18,245.24,592.87,265.17,619.79Z"/><path class="cls-2" d="M323.91,646c24.82-.4,49.57-11.9,70.78-24,3.25-1.85,5.74-3.32,10-5.79-10.7,3.54-21.84,6.23-33.17,4.62-10.05-1.43-19.62-5-29.35-7.76-7.77-2.21-15.78-4-23.91-3.69-7.14.24-16.48,1.35-21.12,7.53s-2.17,14.85,2.38,20.31C305.31,644.26,314.69,646.18,323.91,646Z"/><path class="cls-2" d="M311.4,469.1q-16.08,0-23.69-8.62t-7.62-26V362.77q0-7.36,3.85-11.21t10.88-3.86q7.2,0,11.14,3.86t3.93,11.21v70.67q0,6.19,2.43,9a7.87,7.87,0,0,0,6.28,2.85,12.26,12.26,0,0,0,2.43-.26q1.26-.24,2.76-.42a4.77,4.77,0,0,1,4.27,2.18q1.43,2.18,1.43,8.88c0,3.91-.79,6.84-2.35,8.79s-4,3.21-7.2,3.77c-.89.11-2.18.27-3.85.5A36.1,36.1,0,0,1,311.4,469.1Z"/><path class="cls-2" d="M372,469.1a38.29,38.29,0,0,1-16.83-3.51A28.06,28.06,0,0,1,343.8,456a24.46,24.46,0,0,1-4.1-14q0-9,4.69-14.24t15.07-7.45Q369.84,418,387.09,418h9.21V432.1h-9.21a52.75,52.75,0,0,0-10.8.92,12.81,12.81,0,0,0-6.28,2.85,6.53,6.53,0,0,0-2,4.93,8.25,8.25,0,0,0,2.76,6.37q2.76,2.5,7.95,2.51a14.92,14.92,0,0,0,7.46-1.84,14.49,14.49,0,0,0,5.27-5.11,14.23,14.23,0,0,0,2-7.62V415.69q0-6-3.1-8.54t-10.63-2.51a50.06,50.06,0,0,0-9,.92,65.36,65.36,0,0,0-11.22,3.26q-4.53,1.68-7.71.5a9.4,9.4,0,0,1-4.93-4,10.94,10.94,0,0,1-1.68-6.2,11.5,11.5,0,0,1,2.18-6.36,13.4,13.4,0,0,1,6.44-4.69,73.19,73.19,0,0,1,14.82-4,85.54,85.54,0,0,1,12.48-1q13.72,0,22.69,3.93A27.24,27.24,0,0,1,417.14,399q4.44,8.12,4.44,20.84V453.7q0,7.37-3.52,11.22t-10.21,3.85q-6.87,0-10.47-3.85t-3.6-11.22v-4.36l1,2.35a19.58,19.58,0,0,1-3.85,9.21,20.39,20.39,0,0,1-7.87,6A26.8,26.8,0,0,1,372,469.1Z"/><path class="cls-2" d="M325,583q-15.06,0-26-5.28a38.56,38.56,0,0,1-16.83-15q-5.87-9.71-5.86-22.94a43.63,43.63,0,0,1,5.61-22.36,40,40,0,0,1,15.4-15.07,45.34,45.34,0,0,1,22.36-5.44,45.93,45.93,0,0,1,16.74,2.93,35.31,35.31,0,0,1,12.89,8.54,36.94,36.94,0,0,1,8.13,13.48,52.89,52.89,0,0,1,2.76,17.58,6.2,6.2,0,0,1-1.84,4.94c-1.23,1.07-3.18,1.59-5.86,1.59H301.19V531.88h37.17l-2.68,2.17A25.6,25.6,0,0,0,334,524a12.56,12.56,0,0,0-4.94-5.86,15.25,15.25,0,0,0-8.12-2,16.15,16.15,0,0,0-9,2.43,15.43,15.43,0,0,0-5.78,7.11,29.85,29.85,0,0,0-2,11.72v1.51q0,11.9,5.28,17T325.8,561a44.71,44.71,0,0,0,8.46-.92,53.84,53.84,0,0,0,9.12-2.59c2.91-1.12,5.42-1.31,7.54-.59a9.54,9.54,0,0,1,4.94,3.68,11.32,11.32,0,0,1,1.92,5.86,12,12,0,0,1-1.5,6.37,11,11,0,0,1-5.53,4.77,57,57,0,0,1-12.47,4A67.17,67.17,0,0,1,325,583Z"/><path class="cls-2" d="M410.86,583a106.67,106.67,0,0,1-15-1.09,50.23,50.23,0,0,1-13.82-3.93,11.88,11.88,0,0,1-5.94-4.52,10.81,10.81,0,0,1-1.68-6,10.58,10.58,0,0,1,1.85-5.78,9.5,9.5,0,0,1,4.68-3.68,9.35,9.35,0,0,1,6.62.25,89.15,89.15,0,0,0,12.64,3.6,57.16,57.16,0,0,0,10.8,1.09q6.2,0,8.88-1.76a5.34,5.34,0,0,0,2.68-4.61,4.56,4.56,0,0,0-1.76-3.85,10.92,10.92,0,0,0-4.94-1.84l-18.59-3q-10.38-1.83-16.07-7.61T375.53,525a23.5,23.5,0,0,1,4.94-15A31.55,31.55,0,0,1,394,500.32a53.28,53.28,0,0,1,19.84-3.44A80.21,80.21,0,0,1,427.61,498a45.49,45.49,0,0,1,12.05,3.94,9.73,9.73,0,0,1,5.2,4.35A10.18,10.18,0,0,1,446,512.2a12.38,12.38,0,0,1-2.1,5.7,8.61,8.61,0,0,1-4.77,3.51,11.4,11.4,0,0,1-7-.42,74,74,0,0,0-9.8-3.18,34.79,34.79,0,0,0-7.95-1c-4.58,0-7.81.61-9.71,1.84a5.45,5.45,0,0,0-2.85,4.69,4.73,4.73,0,0,0,1.51,3.6,8.65,8.65,0,0,0,4.69,1.92l18.58,3.19q10.72,1.66,16.5,7.28t5.77,15.15q0,13.56-10.38,21T410.86,583Z"/><path class="cls-2" d="M480.85,612.75q-7,0-10.88-3.85t-3.85-11.22V512.12q0-7.2,3.77-11.05t10.8-3.85q7.19,0,11,3.85t3.77,11.05v9.71l-1.84-8.2a21.6,21.6,0,0,1,9.8-12.14,31.64,31.64,0,0,1,17-4.61,33.33,33.33,0,0,1,31.48,19.93q4.53,9.54,4.52,23.11,0,13.22-4.52,22.94A33.14,33.14,0,0,1,520.37,583a31.93,31.93,0,0,1-16.58-4.36,21.54,21.54,0,0,1-9.87-11.38h2v30.47q0,7.37-3.93,11.22T480.85,612.75ZM511,561a14.12,14.12,0,0,0,8-2.26,15.14,15.14,0,0,0,5.44-6.86,30.22,30.22,0,0,0,2-12q0-11.22-4.35-16.16A14.12,14.12,0,0,0,511,518.82a15,15,0,0,0-8,2.17,14.5,14.5,0,0,0-5.53,6.79q-2,4.61-2,12.14,0,11,4.36,16.07A14.15,14.15,0,0,0,511,561Z"/><path class="cls-2" d="M605.77,583Q595,583,588.19,579a24.31,24.31,0,0,1-10.3-11.8q-3.43-7.87-3.43-19.93V512.12q0-7.37,3.85-11.14t11.05-3.76q7.2,0,11,3.76t3.85,11.14v36q0,6,2.51,9t7.87,3a12.58,12.58,0,0,0,9.88-4.36q3.86-4.35,3.85-11.55V512.12q0-7.37,3.86-11.14t11-3.76q7.19,0,11.05,3.76t3.85,11.14v55.42q0,15.08-14.4,15.07-7,0-10.89-3.85T629,567.54v-9.71l2.68,8.21a28.49,28.49,0,0,1-10.3,12.55A27.74,27.74,0,0,1,605.77,583Z"/><path class="cls-2" d="M695.69,582.61q-7,0-10.89-3.85T681,567.54V512.12q0-7.2,3.77-11.05t10.8-3.85q7,0,10.72,3.85t3.68,11.05v9.21l-1.84-8.21a28.13,28.13,0,0,1,10.46-11.8,30,30,0,0,1,16.5-4.44,27,27,0,0,1,15.49,4.36q6.44,4.35,9.29,13.22h-2.34A29.37,29.37,0,0,1,769,501.57a32.26,32.26,0,0,1,17.08-4.69q9.71,0,15.91,3.77t9.29,11.72q3.11,7.95,3.1,20v35.16q0,7.38-3.94,11.22t-11.13,3.85q-7,0-10.89-3.85t-3.85-11.22V533.22q0-7.2-2.17-10.38c-1.46-2.12-3.86-3.19-7.21-3.19q-6.19,0-9.46,4.36T762.5,536.4v31.14q0,7.38-3.85,11.22t-11,3.85q-7.2,0-11.05-3.85t-3.86-11.22V533.22q0-7.2-2.17-10.38c-1.46-2.12-3.86-3.19-7.2-3.19A11,11,0,0,0,714,524q-3.25,4.35-3.26,12.39v31.14Q710.76,582.62,695.69,582.61Z"/><path class="cls-2" d="M851.41,485.33q-7.87,0-12.14-3.69T835,470.93q0-6.87,4.27-10.55t12.14-3.69q8.21,0,12.39,3.69T868,470.93q0,7-4.19,10.71T851.41,485.33Zm0,97.28q-7,0-10.88-4.18t-3.85-12.06V513.46q0-7.88,3.85-12.06t10.88-4.18q7.2,0,11.14,4.18t3.93,12.06v52.91q0,7.88-3.85,12.06T851.41,582.61Z"/><path class="cls-2" d="M932,583q-12.56,0-20.68-3.85a25.65,25.65,0,0,1-12.14-11.64q-4-7.79-4-19.51V520.66h-5.69c-3.57,0-6.34-.95-8.29-2.85s-2.93-4.63-2.93-8.2,1-6.28,2.93-8.12,4.72-2.77,8.29-2.77h5.69V488.34q0-7.36,3.86-11.22t11-3.85q7.2,0,11.05,3.85t3.85,11.22v10.38h13.73q5.52,0,8.46,2.77t2.93,8.12c0,3.57-1,6.31-2.93,8.2s-4.78,2.85-8.46,2.85H924.92V547q0,6.19,2.93,9.12t9.29,2.93a19.84,19.84,0,0,0,4.53-.5,18.07,18.07,0,0,1,4-.5,5.28,5.28,0,0,1,4.36,1.59c1.11,1.17,1.67,3.83,1.67,7.95A21,21,0,0,1,950.2,576a9.21,9.21,0,0,1-5.35,4.94,34.42,34.42,0,0,1-6.37,1.42A47.41,47.41,0,0,1,932,583Z"/><path class="cls-2" d="M993.74,583a38.22,38.22,0,0,1-16.83-3.52,28,28,0,0,1-11.38-9.63,24.45,24.45,0,0,1-4.11-14q0-9,4.69-14.23t15.07-7.45q10.38-2.26,27.63-2.26H1018v14.06h-9.21a52.88,52.88,0,0,0-10.8.92,13,13,0,0,0-6.28,2.85,6.55,6.55,0,0,0-2,4.94,8.21,8.21,0,0,0,2.76,6.36c1.85,1.68,4.5,2.51,8,2.51a14.88,14.88,0,0,0,7.45-1.84,14.16,14.16,0,0,0,7.28-12.72V529.53c0-4-1-6.86-3.09-8.54s-5.61-2.51-10.64-2.51a51,51,0,0,0-9,.92,66.39,66.39,0,0,0-11.22,3.27c-3,1.12-5.58,1.28-7.7.5a9.48,9.48,0,0,1-4.94-4,11.07,11.07,0,0,1-1.68-6.19,11.5,11.5,0,0,1,2.18-6.37,13.35,13.35,0,0,1,6.45-4.68,73.19,73.19,0,0,1,14.82-4,85.61,85.61,0,0,1,12.47-1q13.72,0,22.69,3.94a27.25,27.25,0,0,1,13.4,12.05q4.43,8.13,4.43,20.85v33.82q0,7.38-3.51,11.22t-10.22,3.85q-6.85,0-10.46-3.85t-3.6-11.22v-4.35l1,2.34a19.5,19.5,0,0,1-3.85,9.21,20.31,20.31,0,0,1-7.87,6A26.77,26.77,0,0,1,993.74,583Z"/></svg>