<svg xmlns="http://www.w3.org/2000/svg" viewBox="0 0 610.24 325.24"><defs><style>.cls-1{fill:#f7ad4c;}.cls-2{fill:#008fd2;}</style></defs><g id="Capa_2" data-name="Capa 2"><g id="Capa_4" data-name="Capa 4"><path class="cls-1" d="M16.91,162.62A145.71,145.71,0,0,0,259.1,271.82l5.19-1.88c9-3.19,18.12-6,27.36-8.29a165.32,165.32,0,0,1-14,16A162.57,162.57,0,1,1,320,121.38H302.42A145.74,145.74,0,0,0,16.91,162.62Z"/><path class="cls-2" d="M384.27,241.27a255.77,255.77,0,0,0-108.69,8.27c-22.17,6.65-43.33,16.29-65.38,23.34s-45.57,11.47-68.33,7.28a113.59,113.59,0,0,1-34.7-13,154.84,154.84,0,0,1-28.12-19.95c20.45,9.15,45.81,9.67,67.65,6.47,23.06-3.37,44.86-12.08,66.48-20.44C224,229,234.91,224.86,246,221.43c23.74-7.31,47.26-10,71.88-5.63,1.71.31,3.42.64,5.11,1C344.61,221.42,365.11,230.33,384.27,241.27Z"/><path class="cls-2" d="M140.52,230.86c-22.12-7.36-42.35-22.49-59.38-38.41-5-4.63-10.57-9.87-17.33-9.42-8.1.53-13.51,9.82-12.24,17.84s7.4,14.46,14.17,18.94c21.43,14.15,49.16,12.86,74.78,11.05Z"/><path class="cls-2" d="M138.51,211C118.73,195.76,99,177.29,84,157.21c-13.47-18.07-26.78-48.77-11.54-69.86,9.42-13,32.16-19.36,46.12-10.28a21.93,21.93,0,0,1,7.38,8.1c6.09,11.49,1,26.58-3.13,37.85-3.6,9.8-7.77,19.86-8.55,30.39C112.73,174.86,126.43,194.67,138.51,211Z"/><path class="cls-2" d="M174.12,226.9c15-.24,30-7.21,42.91-14.54,2-1.12,3.48-2,6-3.51-6.49,2.15-13.24,3.77-20.11,2.8-6.1-.87-11.9-3-17.79-4.71a47.65,47.65,0,0,0-14.5-2.23c-4.33.14-10,.82-12.8,4.56s-1.32,9,1.44,12.31C162.84,225.83,168.53,227,174.12,226.9Z"/><path class="cls-2" d="M166.54,119.64q-9.75,0-14.37-5.23t-4.62-15.78V55.18q0-4.45,2.34-6.8a8.88,8.88,0,0,1,6.59-2.33,9.27,9.27,0,0,1,6.76,2.33q2.38,2.34,2.38,6.8V98q0,3.75,1.47,5.48a4.78,4.78,0,0,0,3.81,1.73,7,7,0,0,0,1.47-.16c.51-.1,1.07-.18,1.68-.25a2.89,2.89,0,0,1,2.59,1.32q.86,1.32.86,5.38a8.46,8.46,0,0,1-1.42,5.33,6.87,6.87,0,0,1-4.37,2.28l-2.33.31A22.66,22.66,0,0,1,166.54,119.64Z"/><path class="cls-2" d="M203.28,119.64a23.19,23.19,0,0,1-10.2-2.13,17,17,0,0,1-6.9-5.84,14.82,14.82,0,0,1-2.49-8.47c0-3.66.95-6.53,2.84-8.63s4.94-3.61,9.14-4.52a82.07,82.07,0,0,1,16.75-1.37H218v8.53h-5.58a32,32,0,0,0-6.55.56,7.78,7.78,0,0,0-3.81,1.72,4,4,0,0,0-1.22,3,5,5,0,0,0,1.68,3.85,6.9,6.9,0,0,0,4.82,1.53,9.1,9.1,0,0,0,4.52-1.12,8.8,8.8,0,0,0,3.2-3.1A8.63,8.63,0,0,0,216.27,99V87.26c0-2.44-.62-4.16-1.87-5.18S211,80.56,208,80.56a30.94,30.94,0,0,0-5.48.56,39.21,39.21,0,0,0-6.8,2,6.65,6.65,0,0,1-4.67.3A5.73,5.73,0,0,1,188,81a6.65,6.65,0,0,1-1-3.76,6.93,6.93,0,0,1,1.32-3.86,8.11,8.11,0,0,1,3.91-2.84,44.35,44.35,0,0,1,9-2.44,52.63,52.63,0,0,1,7.56-.6q8.33,0,13.76,2.38a16.55,16.55,0,0,1,8.12,7.31q2.69,4.92,2.69,12.64v20.5q0,4.47-2.13,6.8a8,8,0,0,1-6.2,2.34,8.24,8.24,0,0,1-6.34-2.34c-1.46-1.55-2.18-3.82-2.18-6.8v-2.64l.61,1.42a11.88,11.88,0,0,1-2.34,5.59,12.43,12.43,0,0,1-4.77,3.65A16.22,16.22,0,0,1,203.28,119.64Z"/><path class="cls-2" d="M174.76,188.66a36.14,36.14,0,0,1-15.79-3.2,23.47,23.47,0,0,1-10.2-9.08,28.87,28.87,0,0,1-.15-27.46,24.2,24.2,0,0,1,9.34-9.14,27.41,27.41,0,0,1,13.55-3.3,27.91,27.91,0,0,1,10.15,1.78,21.37,21.37,0,0,1,7.82,5.18,22.45,22.45,0,0,1,4.92,8.17,31.9,31.9,0,0,1,1.67,10.65,3.76,3.76,0,0,1-1.11,3,5.4,5.4,0,0,1-3.55,1H160.34V157.7h22.54L181.25,159a15.52,15.52,0,0,0-1-6.09,7.65,7.65,0,0,0-3-3.56,9.25,9.25,0,0,0-4.92-1.21,9.8,9.8,0,0,0-5.43,1.47,9.34,9.34,0,0,0-3.5,4.31,18.15,18.15,0,0,0-1.22,7.11V162q0,7.22,3.2,10.3t9.89,3.1a27.66,27.66,0,0,0,5.13-.56,32,32,0,0,0,5.53-1.57,6.64,6.64,0,0,1,4.57-.36,5.75,5.75,0,0,1,3,2.24,6.85,6.85,0,0,1,1.16,3.55,7.16,7.16,0,0,1-.91,3.86,6.66,6.66,0,0,1-3.35,2.89,34.82,34.82,0,0,1-7.56,2.44A40.76,40.76,0,0,1,174.76,188.66Z"/><path class="cls-2" d="M226.83,188.66a64,64,0,0,1-9.08-.66,30.2,30.2,0,0,1-8.38-2.39,7.13,7.13,0,0,1-3.6-2.74,6.54,6.54,0,0,1-1-3.65,6.46,6.46,0,0,1,1.12-3.5,5.81,5.81,0,0,1,2.84-2.24,5.71,5.71,0,0,1,4,.15,52.7,52.7,0,0,0,7.67,2.19,34.21,34.21,0,0,0,6.54.66q3.76,0,5.38-1.07a3.21,3.21,0,0,0,1.63-2.79,2.78,2.78,0,0,0-1.07-2.34,6.59,6.59,0,0,0-3-1.11l-11.27-1.83q-6.3-1.11-9.75-4.62a12.5,12.5,0,0,1-3.45-9.18,14.25,14.25,0,0,1,3-9.09,19.16,19.16,0,0,1,8.22-5.89,32.46,32.46,0,0,1,12-2.08,48.23,48.23,0,0,1,8.32.66,27.58,27.58,0,0,1,7.31,2.39,5.92,5.92,0,0,1,3.15,2.64,6.16,6.16,0,0,1,.71,3.6,7.57,7.57,0,0,1-1.27,3.45,5.21,5.21,0,0,1-2.89,2.13,6.94,6.94,0,0,1-4.27-.25,44.26,44.26,0,0,0-5.94-1.93,20.85,20.85,0,0,0-4.82-.61q-4.16,0-5.88,1.12a3.28,3.28,0,0,0-1.73,2.84,2.85,2.85,0,0,0,.91,2.18,5.23,5.23,0,0,0,2.85,1.17l11.26,1.93q6.49,1,10,4.41a12.2,12.2,0,0,1,3.5,9.19q0,8.22-6.29,12.74T226.83,188.66Z"/><path class="cls-2" d="M269.26,206.73a8.92,8.92,0,0,1-6.6-2.34c-1.55-1.56-2.33-3.82-2.33-6.8V145.72q0-4.36,2.28-6.7a8.76,8.76,0,0,1,6.55-2.34q4.36,0,6.65,2.34t2.28,6.7v5.89l-1.11-5a13.12,13.12,0,0,1,5.93-7.36,19.24,19.24,0,0,1,10.31-2.79,20.21,20.21,0,0,1,19.08,12.08,32.5,32.5,0,0,1,2.74,14,32.66,32.66,0,0,1-2.74,13.91,20.1,20.1,0,0,1-19.08,12.18A19.39,19.39,0,0,1,283.17,186a13.07,13.07,0,0,1-6-6.9h1.22v18.47c0,3-.8,5.24-2.39,6.8A9.23,9.23,0,0,1,269.26,206.73Zm18.27-31.37a8.62,8.62,0,0,0,4.83-1.37,9.22,9.22,0,0,0,3.29-4.16,18.18,18.18,0,0,0,1.22-7.26q0-6.8-2.64-9.8a8.55,8.55,0,0,0-6.7-3,9.07,9.07,0,0,0-4.87,1.32,8.76,8.76,0,0,0-3.35,4.11,18.66,18.66,0,0,0-1.22,7.36q0,6.7,2.64,9.74A8.57,8.57,0,0,0,287.53,175.36Z"/><path class="cls-2" d="M345,188.66a21.24,21.24,0,0,1-10.66-2.39,14.68,14.68,0,0,1-6.24-7.15A30.32,30.32,0,0,1,326,167V145.72c0-3,.77-5.23,2.33-6.75a10.95,10.95,0,0,1,13.4,0c1.56,1.52,2.33,3.77,2.33,6.75v21.82A8.4,8.4,0,0,0,345.6,173a5.87,5.87,0,0,0,4.77,1.82,7.63,7.63,0,0,0,6-2.64,10.2,10.2,0,0,0,2.33-7V145.72q0-4.47,2.34-6.75c1.55-1.52,3.79-2.29,6.7-2.29a9.21,9.21,0,0,1,6.7,2.29q2.32,2.28,2.33,6.75v33.6q0,9.13-8.73,9.13a8.92,8.92,0,0,1-6.6-2.33c-1.55-1.56-2.33-3.82-2.33-6.8v-5.89l1.62,5a17.37,17.37,0,0,1-6.24,7.61A16.86,16.86,0,0,1,345,188.66Z"/><path class="cls-2" d="M399.5,188.45a8.92,8.92,0,0,1-6.6-2.33c-1.56-1.56-2.33-3.82-2.33-6.8v-33.6q0-4.36,2.28-6.7a8.74,8.74,0,0,1,6.55-2.34q4.26,0,6.5,2.34c1.48,1.56,2.23,3.79,2.23,6.7v5.58l-1.12-5a17.09,17.09,0,0,1,6.35-7.16,18.19,18.19,0,0,1,10-2.69,16.4,16.4,0,0,1,9.39,2.64,14.68,14.68,0,0,1,5.63,8H437a17.86,17.86,0,0,1,7-7.82,19.58,19.58,0,0,1,10.36-2.84,18.25,18.25,0,0,1,9.64,2.29,13.84,13.84,0,0,1,5.63,7.1A33.56,33.56,0,0,1,471.47,158v21.32c0,3-.79,5.24-2.38,6.8a9.23,9.23,0,0,1-6.75,2.33,8.89,8.89,0,0,1-6.6-2.33c-1.56-1.56-2.34-3.82-2.34-6.8V158.51q0-4.37-1.32-6.29a4.89,4.89,0,0,0-4.36-1.93,6.73,6.73,0,0,0-5.74,2.64q-2,2.64-2,7.51v18.88c0,3-.77,5.24-2.33,6.8s-3.79,2.33-6.7,2.33-5.14-.77-6.7-2.33-2.34-3.82-2.34-6.8V158.51q0-4.37-1.32-6.29a4.89,4.89,0,0,0-4.36-1.93,6.61,6.61,0,0,0-5.63,2.64q-2,2.64-2,7.51v18.88Q408.64,188.46,399.5,188.45Z"/><path class="cls-2" d="M493.91,129.48q-4.79,0-7.36-2.24a8.08,8.08,0,0,1-2.59-6.49,8,8,0,0,1,2.59-6.4q2.58-2.23,7.36-2.23,5,0,7.51,2.23a8.08,8.08,0,0,1,2.54,6.4,8.18,8.18,0,0,1-2.54,6.49Q498.87,129.48,493.91,129.48Zm0,59a8.5,8.5,0,0,1-6.6-2.53q-2.34-2.53-2.34-7.31V146.53q0-4.77,2.34-7.31a8.51,8.51,0,0,1,6.6-2.54,8.85,8.85,0,0,1,6.75,2.54q2.38,2.53,2.38,7.31v32.08q0,4.77-2.33,7.31T493.91,188.45Z"/><path class="cls-2" d="M542.73,188.66a29.3,29.3,0,0,1-12.54-2.34,15.55,15.55,0,0,1-7.36-7,25.71,25.71,0,0,1-2.43-11.83V150.9H517a6.93,6.93,0,0,1-5-1.73,6.63,6.63,0,0,1-1.77-5,6.48,6.48,0,0,1,1.77-4.93,7.09,7.09,0,0,1,5-1.67h3.45v-6.3q0-4.45,2.33-6.8t6.7-2.33c2.91,0,5.15.78,6.7,2.33s2.34,3.83,2.34,6.8v6.3h8.32a7.25,7.25,0,0,1,5.13,1.67,6.48,6.48,0,0,1,1.77,4.93,6.63,6.63,0,0,1-1.77,5,7.09,7.09,0,0,1-5.13,1.73h-8.32v15.93c0,2.51.59,4.35,1.77,5.54s3.07,1.77,5.64,1.77a12.3,12.3,0,0,0,2.74-.3,10.52,10.52,0,0,1,2.44-.31,3.19,3.19,0,0,1,2.63,1c.68.71,1,2.32,1,4.82a12.94,12.94,0,0,1-.91,5.13,5.62,5.62,0,0,1-3.25,3,21.16,21.16,0,0,1-3.86.86A28.18,28.18,0,0,1,542.73,188.66Z"/><path class="cls-2" d="M580.19,188.66a23.19,23.19,0,0,1-10.2-2.13,17,17,0,0,1-6.91-5.84,14.82,14.82,0,0,1-2.48-8.48c0-3.65.94-6.53,2.84-8.63s4.94-3.6,9.14-4.51a81.25,81.25,0,0,1,16.74-1.37h5.59v8.52h-5.59a31.94,31.94,0,0,0-6.54.56,7.87,7.87,0,0,0-3.81,1.73,4,4,0,0,0-1.22,3,5,5,0,0,0,1.68,3.86,6.88,6.88,0,0,0,4.82,1.52,9.09,9.09,0,0,0,4.52-1.11,8.77,8.77,0,0,0,3.19-3.1,8.57,8.57,0,0,0,1.22-4.62V156.28c0-2.44-.62-4.17-1.88-5.18s-3.4-1.52-6.44-1.52a29.94,29.94,0,0,0-5.48.56,40,40,0,0,0-6.8,2,6.72,6.72,0,0,1-4.67.31,5.75,5.75,0,0,1-3-2.44,6.62,6.62,0,0,1-1-3.75,6.91,6.91,0,0,1,1.32-3.86,8,8,0,0,1,3.9-2.84,44.61,44.61,0,0,1,9-2.44,51.33,51.33,0,0,1,7.56-.61q8.33,0,13.75,2.39a16.52,16.52,0,0,1,8.13,7.31q2.69,4.92,2.69,12.63v20.51c0,3-.72,5.24-2.14,6.8a7.94,7.94,0,0,1-6.19,2.33c-2.77,0-4.89-.77-6.34-2.33s-2.19-3.82-2.19-6.8v-2.64l.61,1.42a11.79,11.79,0,0,1-2.33,5.58,12.35,12.35,0,0,1-4.77,3.66A16.25,16.25,0,0,1,580.19,188.66Z"/></g></g></svg>