<svg xmlns="http://www.w3.org/2000/svg" version="1.1" xmlns:xlink="http://www.w3.org/1999/xlink" xmlns:svgjs="http://svgjs.dev/svgjs" viewBox="0 0 800 800" width="800" height="800"><g stroke-width="3.5" stroke="hsl(261, 60%, 38%)" fill="none"><circle r="4.289473684210526" cx="0" cy="0" fill="hsl(261, 60%, 38%)" stroke="none"></circle><circle r="4.289473684210526" cx="53.333333333333336" cy="0" fill="hsl(261, 60%, 38%)" stroke="none"></circle><circle r="4.289473684210526" cx="106.66666666666667" cy="0" fill="hsl(261, 60%, 38%)" stroke="none"></circle><circle r="4.289473684210526" cx="160" cy="0" fill="hsl(261, 60%, 38%)" stroke="none"></circle><circle r="4.289473684210526" cx="213.33333333333334" cy="0" fill="hsl(261, 60%, 38%)" stroke="none"></circle><circle r="4.289473684210526" cx="266.6666666666667" cy="0" fill="hsl(261, 60%, 38%)" stroke="none"></circle><circle r="4.289473684210526" cx="320" cy="0" fill="hsl(261, 60%, 38%)" stroke="none"></circle><circle r="4.289473684210526" cx="373.3333333333333" cy="0" fill="hsl(261, 60%, 38%)" stroke="none"></circle><circle r="4.289473684210526" cx="426.66666666666663" cy="0" fill="hsl(261, 60%, 38%)" stroke="none"></circle><circle r="4.289473684210526" cx="479.99999999999994" cy="0" fill="hsl(261, 60%, 38%)" stroke="none"></circle><circle r="4.289473684210526" cx="533.3333333333333" cy="0" fill="hsl(261, 60%, 38%)" stroke="none"></circle><circle r="4.289473684210526" cx="586.6666666666666" cy="0" fill="hsl(261, 60%, 38%)" stroke="none"></circle><circle r="4.289473684210526" cx="640" cy="0" fill="hsl(261, 60%, 38%)" stroke="none"></circle><circle r="4.289473684210526" cx="693.3333333333334" cy="0" fill="hsl(261, 60%, 38%)" stroke="none"></circle><circle r="4.289473684210526" cx="746.6666666666667" cy="0" fill="hsl(261, 60%, 38%)" stroke="none"></circle><circle r="4.289473684210526" cx="800.0000000000001" cy="0" fill="hsl(261, 60%, 38%)" stroke="none"></circle><circle r="4.289473684210526" cx="0" cy="72.72727272727273" fill="hsl(261, 60%, 38%)" stroke="none"></circle><circle r="4.289473684210526" cx="53.333333333333336" cy="72.72727272727273" fill="hsl(261, 60%, 38%)" stroke="none"></circle><circle r="4.289473684210526" cx="106.66666666666667" cy="72.72727272727273" fill="hsl(261, 60%, 38%)" stroke="none"></circle><circle r="4.289473684210526" cx="160" cy="72.72727272727273" fill="hsl(261, 60%, 38%)" stroke="none"></circle><circle r="4.289473684210526" cx="213.33333333333334" cy="72.72727272727273" fill="hsl(261, 60%, 38%)" stroke="none"></circle><circle r="4.289473684210526" cx="266.6666666666667" cy="72.72727272727273" fill="hsl(261, 60%, 38%)" stroke="none"></circle><circle r="4.289473684210526" cx="320" cy="72.72727272727273" fill="hsl(261, 60%, 38%)" stroke="none"></circle><circle r="4.289473684210526" cx="373.3333333333333" cy="72.72727272727273" fill="hsl(261, 60%, 38%)" stroke="none"></circle><circle r="4.289473684210526" cx="426.66666666666663" cy="72.72727272727273" fill="hsl(261, 60%, 38%)" stroke="none"></circle><circle r="4.289473684210526" cx="479.99999999999994" cy="72.72727272727273" fill="hsl(261, 60%, 38%)" stroke="none"></circle><circle r="4.289473684210526" cx="533.3333333333333" cy="72.72727272727273" fill="hsl(261, 60%, 38%)" stroke="none"></circle><circle r="4.289473684210526" cx="586.6666666666666" cy="72.72727272727273" fill="hsl(261, 60%, 38%)" stroke="none"></circle><circle r="4.289473684210526" cx="640" cy="72.72727272727273" fill="hsl(261, 60%, 38%)" stroke="none"></circle><circle r="4.289473684210526" cx="693.3333333333334" cy="72.72727272727273" fill="hsl(261, 60%, 38%)" stroke="none"></circle><circle r="4.289473684210526" cx="746.6666666666667" cy="72.72727272727273" fill="hsl(261, 60%, 38%)" stroke="none"></circle><circle r="4.289473684210526" cx="800.0000000000001" cy="72.72727272727273" fill="hsl(261, 60%, 38%)" stroke="none"></circle><circle r="4.289473684210526" cx="0" cy="145.45454545454547" fill="hsl(261, 60%, 38%)" stroke="none"></circle><circle r="4.289473684210526" cx="53.333333333333336" cy="145.45454545454547" fill="hsl(261, 60%, 38%)" stroke="none"></circle><circle r="4.289473684210526" cx="106.66666666666667" cy="145.45454545454547" fill="hsl(261, 60%, 38%)" stroke="none"></circle><circle r="4.289473684210526" cx="160" cy="145.45454545454547" fill="hsl(261, 60%, 38%)" stroke="none"></circle><circle r="4.289473684210526" cx="213.33333333333334" cy="145.45454545454547" fill="hsl(261, 60%, 38%)" stroke="none"></circle><circle r="4.289473684210526" cx="266.6666666666667" cy="145.45454545454547" fill="hsl(261, 60%, 38%)" stroke="none"></circle><circle r="4.289473684210526" cx="320" cy="145.45454545454547" fill="hsl(261, 60%, 38%)" stroke="none"></circle><circle r="4.289473684210526" cx="373.3333333333333" cy="145.45454545454547" fill="hsl(261, 60%, 38%)" stroke="none"></circle><circle r="4.289473684210526" cx="426.66666666666663" cy="145.45454545454547" fill="hsl(261, 60%, 38%)" stroke="none"></circle><circle r="4.289473684210526" cx="479.99999999999994" cy="145.45454545454547" fill="hsl(261, 60%, 38%)" stroke="none"></circle><circle r="4.289473684210526" cx="533.3333333333333" cy="145.45454545454547" fill="hsl(261, 60%, 38%)" stroke="none"></circle><circle r="4.289473684210526" cx="586.6666666666666" cy="145.45454545454547" fill="hsl(261, 60%, 38%)" stroke="none"></circle><circle r="4.289473684210526" cx="640" cy="145.45454545454547" fill="hsl(261, 60%, 38%)" stroke="none"></circle><circle r="4.289473684210526" cx="693.3333333333334" cy="145.45454545454547" fill="hsl(261, 60%, 38%)" stroke="none"></circle><circle r="4.289473684210526" cx="746.6666666666667" cy="145.45454545454547" fill="hsl(261, 60%, 38%)" stroke="none"></circle><circle r="4.289473684210526" cx="800.0000000000001" cy="145.45454545454547" fill="hsl(261, 60%, 38%)" stroke="none"></circle><circle r="4.289473684210526" cx="0" cy="218.1818181818182" fill="hsl(261, 60%, 38%)" stroke="none"></circle><circle r="4.289473684210526" cx="53.333333333333336" cy="218.1818181818182" fill="hsl(261, 60%, 38%)" stroke="none"></circle><circle r="4.289473684210526" cx="106.66666666666667" cy="218.1818181818182" fill="hsl(261, 60%, 38%)" stroke="none"></circle><circle r="4.289473684210526" cx="160" cy="218.1818181818182" fill="hsl(261, 60%, 38%)" stroke="none"></circle><circle r="4.289473684210526" cx="213.33333333333334" cy="218.1818181818182" fill="hsl(261, 60%, 38%)" stroke="none"></circle><circle r="4.289473684210526" cx="266.6666666666667" cy="218.1818181818182" fill="hsl(261, 60%, 38%)" stroke="none"></circle><circle r="4.289473684210526" cx="320" cy="218.1818181818182" fill="hsl(261, 60%, 38%)" stroke="none"></circle><circle r="4.289473684210526" cx="373.3333333333333" cy="218.1818181818182" fill="hsl(261, 60%, 38%)" stroke="none"></circle><circle r="4.289473684210526" cx="426.66666666666663" cy="218.1818181818182" fill="hsl(261, 60%, 38%)" stroke="none"></circle><circle r="4.289473684210526" cx="479.99999999999994" cy="218.1818181818182" fill="hsl(261, 60%, 38%)" stroke="none"></circle><circle r="4.289473684210526" cx="533.3333333333333" cy="218.1818181818182" fill="hsl(261, 60%, 38%)" stroke="none"></circle><circle r="4.289473684210526" cx="586.6666666666666" cy="218.1818181818182" fill="hsl(261, 60%, 38%)" stroke="none"></circle><circle r="4.289473684210526" cx="640" cy="218.1818181818182" fill="hsl(261, 60%, 38%)" stroke="none"></circle><circle r="4.289473684210526" cx="693.3333333333334" cy="218.1818181818182" fill="hsl(261, 60%, 38%)" stroke="none"></circle><circle r="4.289473684210526" cx="746.6666666666667" cy="218.1818181818182" fill="hsl(261, 60%, 38%)" stroke="none"></circle><circle r="4.289473684210526" cx="800.0000000000001" cy="218.1818181818182" fill="hsl(261, 60%, 38%)" stroke="none"></circle><circle r="4.289473684210526" cx="0" cy="290.90909090909093" fill="hsl(261, 60%, 38%)" stroke="none"></circle><circle r="4.289473684210526" cx="53.333333333333336" cy="290.90909090909093" fill="hsl(261, 60%, 38%)" stroke="none"></circle><circle r="4.289473684210526" cx="106.66666666666667" cy="290.90909090909093" fill="hsl(261, 60%, 38%)" stroke="none"></circle><circle r="4.289473684210526" cx="160" cy="290.90909090909093" fill="hsl(261, 60%, 38%)" stroke="none"></circle><circle r="4.289473684210526" cx="213.33333333333334" cy="290.90909090909093" fill="hsl(261, 60%, 38%)" stroke="none"></circle><circle r="4.289473684210526" cx="266.6666666666667" cy="290.90909090909093" fill="hsl(261, 60%, 38%)" stroke="none"></circle><circle r="4.289473684210526" cx="320" cy="290.90909090909093" fill="hsl(261, 60%, 38%)" stroke="none"></circle><circle r="4.289473684210526" cx="373.3333333333333" cy="290.90909090909093" fill="hsl(261, 60%, 38%)" stroke="none"></circle><circle r="4.289473684210526" cx="426.66666666666663" cy="290.90909090909093" fill="hsl(261, 60%, 38%)" stroke="none"></circle><circle r="4.289473684210526" cx="479.99999999999994" cy="290.90909090909093" fill="hsl(261, 60%, 38%)" stroke="none"></circle><circle r="4.289473684210526" cx="533.3333333333333" cy="290.90909090909093" fill="hsl(261, 60%, 38%)" stroke="none"></circle><circle r="4.289473684210526" cx="586.6666666666666" cy="290.90909090909093" fill="hsl(261, 60%, 38%)" stroke="none"></circle><circle r="4.289473684210526" cx="640" cy="290.90909090909093" fill="hsl(261, 60%, 38%)" stroke="none"></circle><circle r="4.289473684210526" cx="693.3333333333334" cy="290.90909090909093" fill="hsl(261, 60%, 38%)" stroke="none"></circle><circle r="4.289473684210526" cx="746.6666666666667" cy="290.90909090909093" fill="hsl(261, 60%, 38%)" stroke="none"></circle><circle r="4.289473684210526" cx="800.0000000000001" cy="290.90909090909093" fill="hsl(261, 60%, 38%)" stroke="none"></circle><circle r="4.289473684210526" cx="0" cy="363.6363636363637" fill="hsl(261, 60%, 38%)" stroke="none"></circle><circle r="4.289473684210526" cx="53.333333333333336" cy="363.6363636363637" fill="hsl(261, 60%, 38%)" stroke="none"></circle><circle r="4.289473684210526" cx="106.66666666666667" cy="363.6363636363637" fill="hsl(261, 60%, 38%)" stroke="none"></circle><circle r="4.289473684210526" cx="160" cy="363.6363636363637" fill="hsl(261, 60%, 38%)" stroke="none"></circle><circle r="4.289473684210526" cx="213.33333333333334" cy="363.6363636363637" fill="hsl(261, 60%, 38%)" stroke="none"></circle><circle r="4.289473684210526" cx="266.6666666666667" cy="363.6363636363637" fill="hsl(261, 60%, 38%)" stroke="none"></circle><circle r="4.289473684210526" cx="320" cy="363.6363636363637" fill="hsl(261, 60%, 38%)" stroke="none"></circle><circle r="4.289473684210526" cx="373.3333333333333" cy="363.6363636363637" fill="hsl(261, 60%, 38%)" stroke="none"></circle><circle r="4.289473684210526" cx="426.66666666666663" cy="363.6363636363637" fill="hsl(261, 60%, 38%)" stroke="none"></circle><circle r="4.289473684210526" cx="479.99999999999994" cy="363.6363636363637" fill="hsl(261, 60%, 38%)" stroke="none"></circle><circle r="4.289473684210526" cx="533.3333333333333" cy="363.6363636363637" fill="hsl(261, 60%, 38%)" stroke="none"></circle><circle r="4.289473684210526" cx="586.6666666666666" cy="363.6363636363637" fill="hsl(261, 60%, 38%)" stroke="none"></circle><circle r="4.289473684210526" cx="640" cy="363.6363636363637" fill="hsl(261, 60%, 38%)" stroke="none"></circle><circle r="4.289473684210526" cx="693.3333333333334" cy="363.6363636363637" fill="hsl(261, 60%, 38%)" stroke="none"></circle><circle r="4.289473684210526" cx="746.6666666666667" cy="363.6363636363637" fill="hsl(261, 60%, 38%)" stroke="none"></circle><circle r="4.289473684210526" cx="800.0000000000001" cy="363.6363636363637" fill="hsl(261, 60%, 38%)" stroke="none"></circle><circle r="4.289473684210526" cx="0" cy="436.36363636363643" fill="hsl(261, 60%, 38%)" stroke="none"></circle><circle r="4.289473684210526" cx="53.333333333333336" cy="436.36363636363643" fill="hsl(261, 60%, 38%)" stroke="none"></circle><circle r="4.289473684210526" cx="106.66666666666667" cy="436.36363636363643" fill="hsl(261, 60%, 38%)" stroke="none"></circle><circle r="4.289473684210526" cx="160" cy="436.36363636363643" fill="hsl(261, 60%, 38%)" stroke="none"></circle><circle r="4.289473684210526" cx="213.33333333333334" cy="436.36363636363643" fill="hsl(261, 60%, 38%)" stroke="none"></circle><circle r="4.289473684210526" cx="266.6666666666667" cy="436.36363636363643" fill="hsl(261, 60%, 38%)" stroke="none"></circle><circle r="4.289473684210526" cx="320" cy="436.36363636363643" fill="hsl(261, 60%, 38%)" stroke="none"></circle><circle r="4.289473684210526" cx="373.3333333333333" cy="436.36363636363643" fill="hsl(261, 60%, 38%)" stroke="none"></circle><circle r="4.289473684210526" cx="426.66666666666663" cy="436.36363636363643" fill="hsl(261, 60%, 38%)" stroke="none"></circle><circle r="4.289473684210526" cx="479.99999999999994" cy="436.36363636363643" fill="hsl(261, 60%, 38%)" stroke="none"></circle><circle r="4.289473684210526" cx="533.3333333333333" cy="436.36363636363643" fill="hsl(261, 60%, 38%)" stroke="none"></circle><circle r="4.289473684210526" cx="586.6666666666666" cy="436.36363636363643" fill="hsl(261, 60%, 38%)" stroke="none"></circle><circle r="4.289473684210526" cx="640" cy="436.36363636363643" fill="hsl(261, 60%, 38%)" stroke="none"></circle><circle r="4.289473684210526" cx="693.3333333333334" cy="436.36363636363643" fill="hsl(261, 60%, 38%)" stroke="none"></circle><circle r="4.289473684210526" cx="746.6666666666667" cy="436.36363636363643" fill="hsl(261, 60%, 38%)" stroke="none"></circle><circle r="4.289473684210526" cx="800.0000000000001" cy="436.36363636363643" fill="hsl(261, 60%, 38%)" stroke="none"></circle><circle r="4.289473684210526" cx="0" cy="509.0909090909092" fill="hsl(261, 60%, 38%)" stroke="none"></circle><circle r="4.289473684210526" cx="53.333333333333336" cy="509.0909090909092" fill="hsl(261, 60%, 38%)" stroke="none"></circle><circle r="4.289473684210526" cx="106.66666666666667" cy="509.0909090909092" fill="hsl(261, 60%, 38%)" stroke="none"></circle><circle r="4.289473684210526" cx="160" cy="509.0909090909092" fill="hsl(261, 60%, 38%)" stroke="none"></circle><circle r="4.289473684210526" cx="213.33333333333334" cy="509.0909090909092" fill="hsl(261, 60%, 38%)" stroke="none"></circle><circle r="4.289473684210526" cx="266.6666666666667" cy="509.0909090909092" fill="hsl(261, 60%, 38%)" stroke="none"></circle><circle r="4.289473684210526" cx="320" cy="509.0909090909092" fill="hsl(261, 60%, 38%)" stroke="none"></circle><circle r="4.289473684210526" cx="373.3333333333333" cy="509.0909090909092" fill="hsl(261, 60%, 38%)" stroke="none"></circle><circle r="4.289473684210526" cx="426.66666666666663" cy="509.0909090909092" fill="hsl(261, 60%, 38%)" stroke="none"></circle><circle r="4.289473684210526" cx="479.99999999999994" cy="509.0909090909092" fill="hsl(261, 60%, 38%)" stroke="none"></circle><circle r="4.289473684210526" cx="533.3333333333333" cy="509.0909090909092" fill="hsl(261, 60%, 38%)" stroke="none"></circle><circle r="4.289473684210526" cx="586.6666666666666" cy="509.0909090909092" fill="hsl(261, 60%, 38%)" stroke="none"></circle><circle r="4.289473684210526" cx="640" cy="509.0909090909092" fill="hsl(261, 60%, 38%)" stroke="none"></circle><circle r="4.289473684210526" cx="693.3333333333334" cy="509.0909090909092" fill="hsl(261, 60%, 38%)" stroke="none"></circle><circle r="4.289473684210526" cx="746.6666666666667" cy="509.0909090909092" fill="hsl(261, 60%, 38%)" stroke="none"></circle><circle r="4.289473684210526" cx="800.0000000000001" cy="509.0909090909092" fill="hsl(261, 60%, 38%)" stroke="none"></circle><circle r="4.289473684210526" cx="0" cy="581.8181818181819" fill="hsl(261, 60%, 38%)" stroke="none"></circle><circle r="4.289473684210526" cx="53.333333333333336" cy="581.8181818181819" fill="hsl(261, 60%, 38%)" stroke="none"></circle><circle r="4.289473684210526" cx="106.66666666666667" cy="581.8181818181819" fill="hsl(261, 60%, 38%)" stroke="none"></circle><circle r="4.289473684210526" cx="160" cy="581.8181818181819" fill="hsl(261, 60%, 38%)" stroke="none"></circle><circle r="4.289473684210526" cx="213.33333333333334" cy="581.8181818181819" fill="hsl(261, 60%, 38%)" stroke="none"></circle><circle r="4.289473684210526" cx="266.6666666666667" cy="581.8181818181819" fill="hsl(261, 60%, 38%)" stroke="none"></circle><circle r="4.289473684210526" cx="320" cy="581.8181818181819" fill="hsl(261, 60%, 38%)" stroke="none"></circle><circle r="4.289473684210526" cx="373.3333333333333" cy="581.8181818181819" fill="hsl(261, 60%, 38%)" stroke="none"></circle><circle r="4.289473684210526" cx="426.66666666666663" cy="581.8181818181819" fill="hsl(261, 60%, 38%)" stroke="none"></circle><circle r="4.289473684210526" cx="479.99999999999994" cy="581.8181818181819" fill="hsl(261, 60%, 38%)" stroke="none"></circle><circle r="4.289473684210526" cx="533.3333333333333" cy="581.8181818181819" fill="hsl(261, 60%, 38%)" stroke="none"></circle><circle r="4.289473684210526" cx="586.6666666666666" cy="581.8181818181819" fill="hsl(261, 60%, 38%)" stroke="none"></circle><circle r="4.289473684210526" cx="640" cy="581.8181818181819" fill="hsl(261, 60%, 38%)" stroke="none"></circle><circle r="4.289473684210526" cx="693.3333333333334" cy="581.8181818181819" fill="hsl(261, 60%, 38%)" stroke="none"></circle><circle r="4.289473684210526" cx="746.6666666666667" cy="581.8181818181819" fill="hsl(261, 60%, 38%)" stroke="none"></circle><circle r="4.289473684210526" cx="800.0000000000001" cy="581.8181818181819" fill="hsl(261, 60%, 38%)" stroke="none"></circle><circle r="4.289473684210526" cx="0" cy="654.5454545454546" fill="hsl(261, 60%, 38%)" stroke="none"></circle><circle r="4.289473684210526" cx="53.333333333333336" cy="654.5454545454546" fill="hsl(261, 60%, 38%)" stroke="none"></circle><circle r="4.289473684210526" cx="106.66666666666667" cy="654.5454545454546" fill="hsl(261, 60%, 38%)" stroke="none"></circle><circle r="4.289473684210526" cx="160" cy="654.5454545454546" fill="hsl(261, 60%, 38%)" stroke="none"></circle><circle r="4.289473684210526" cx="213.33333333333334" cy="654.5454545454546" fill="hsl(261, 60%, 38%)" stroke="none"></circle><circle r="4.289473684210526" cx="266.6666666666667" cy="654.5454545454546" fill="hsl(261, 60%, 38%)" stroke="none"></circle><circle r="4.289473684210526" cx="320" cy="654.5454545454546" fill="hsl(261, 60%, 38%)" stroke="none"></circle><circle r="4.289473684210526" cx="373.3333333333333" cy="654.5454545454546" fill="hsl(261, 60%, 38%)" stroke="none"></circle><circle r="4.289473684210526" cx="426.66666666666663" cy="654.5454545454546" fill="hsl(261, 60%, 38%)" stroke="none"></circle><circle r="4.289473684210526" cx="479.99999999999994" cy="654.5454545454546" fill="hsl(261, 60%, 38%)" stroke="none"></circle><circle r="4.289473684210526" cx="533.3333333333333" cy="654.5454545454546" fill="hsl(261, 60%, 38%)" stroke="none"></circle><circle r="4.289473684210526" cx="586.6666666666666" cy="654.5454545454546" fill="hsl(261, 60%, 38%)" stroke="none"></circle><circle r="4.289473684210526" cx="640" cy="654.5454545454546" fill="hsl(261, 60%, 38%)" stroke="none"></circle><circle r="4.289473684210526" cx="693.3333333333334" cy="654.5454545454546" fill="hsl(261, 60%, 38%)" stroke="none"></circle><circle r="4.289473684210526" cx="746.6666666666667" cy="654.5454545454546" fill="hsl(261, 60%, 38%)" stroke="none"></circle><circle r="4.289473684210526" cx="800.0000000000001" cy="654.5454545454546" fill="hsl(261, 60%, 38%)" stroke="none"></circle><circle r="4.289473684210526" cx="0" cy="727.2727272727274" fill="hsl(261, 60%, 38%)" stroke="none"></circle><circle r="4.289473684210526" cx="53.333333333333336" cy="727.2727272727274" fill="hsl(261, 60%, 38%)" stroke="none"></circle><circle r="4.289473684210526" cx="106.66666666666667" cy="727.2727272727274" fill="hsl(261, 60%, 38%)" stroke="none"></circle><circle r="4.289473684210526" cx="160" cy="727.2727272727274" fill="hsl(261, 60%, 38%)" stroke="none"></circle><circle r="4.289473684210526" cx="213.33333333333334" cy="727.2727272727274" fill="hsl(261, 60%, 38%)" stroke="none"></circle><circle r="4.289473684210526" cx="266.6666666666667" cy="727.2727272727274" fill="hsl(261, 60%, 38%)" stroke="none"></circle><circle r="4.289473684210526" cx="320" cy="727.2727272727274" fill="hsl(261, 60%, 38%)" stroke="none"></circle><circle r="4.289473684210526" cx="373.3333333333333" cy="727.2727272727274" fill="hsl(261, 60%, 38%)" stroke="none"></circle><circle r="4.289473684210526" cx="426.66666666666663" cy="727.2727272727274" fill="hsl(261, 60%, 38%)" stroke="none"></circle><circle r="4.289473684210526" cx="479.99999999999994" cy="727.2727272727274" fill="hsl(261, 60%, 38%)" stroke="none"></circle><circle r="4.289473684210526" cx="533.3333333333333" cy="727.2727272727274" fill="hsl(261, 60%, 38%)" stroke="none"></circle><circle r="4.289473684210526" cx="586.6666666666666" cy="727.2727272727274" fill="hsl(261, 60%, 38%)" stroke="none"></circle><circle r="4.289473684210526" cx="640" cy="727.2727272727274" fill="hsl(261, 60%, 38%)" stroke="none"></circle><circle r="4.289473684210526" cx="693.3333333333334" cy="727.2727272727274" fill="hsl(261, 60%, 38%)" stroke="none"></circle><circle r="4.289473684210526" cx="746.6666666666667" cy="727.2727272727274" fill="hsl(261, 60%, 38%)" stroke="none"></circle><circle r="4.289473684210526" cx="800.0000000000001" cy="727.2727272727274" fill="hsl(261, 60%, 38%)" stroke="none"></circle><circle r="4.289473684210526" cx="0" cy="800.0000000000001" fill="hsl(261, 60%, 38%)" stroke="none"></circle><circle r="4.289473684210526" cx="53.333333333333336" cy="800.0000000000001" fill="hsl(261, 60%, 38%)" stroke="none"></circle><circle r="4.289473684210526" cx="106.66666666666667" cy="800.0000000000001" fill="hsl(261, 60%, 38%)" stroke="none"></circle><circle r="4.289473684210526" cx="160" cy="800.0000000000001" fill="hsl(261, 60%, 38%)" stroke="none"></circle><circle r="4.289473684210526" cx="213.33333333333334" cy="800.0000000000001" fill="hsl(261, 60%, 38%)" stroke="none"></circle><circle r="4.289473684210526" cx="266.6666666666667" cy="800.0000000000001" fill="hsl(261, 60%, 38%)" stroke="none"></circle><circle r="4.289473684210526" cx="320" cy="800.0000000000001" fill="hsl(261, 60%, 38%)" stroke="none"></circle><circle r="4.289473684210526" cx="373.3333333333333" cy="800.0000000000001" fill="hsl(261, 60%, 38%)" stroke="none"></circle><circle r="4.289473684210526" cx="426.66666666666663" cy="800.0000000000001" fill="hsl(261, 60%, 38%)" stroke="none"></circle><circle r="4.289473684210526" cx="479.99999999999994" cy="800.0000000000001" fill="hsl(261, 60%, 38%)" stroke="none"></circle><circle r="4.289473684210526" cx="533.3333333333333" cy="800.0000000000001" fill="hsl(261, 60%, 38%)" stroke="none"></circle><circle r="4.289473684210526" cx="586.6666666666666" cy="800.0000000000001" fill="hsl(261, 60%, 38%)" stroke="none"></circle><circle r="4.289473684210526" cx="640" cy="800.0000000000001" fill="hsl(261, 60%, 38%)" stroke="none"></circle><circle r="4.289473684210526" cx="693.3333333333334" cy="800.0000000000001" fill="hsl(261, 60%, 38%)" stroke="none"></circle><circle r="4.289473684210526" cx="746.6666666666667" cy="800.0000000000001" fill="hsl(261, 60%, 38%)" stroke="none"></circle><circle r="4.289473684210526" cx="800.0000000000001" cy="800.0000000000001" fill="hsl(261, 60%, 38%)" stroke="none"></circle></g></svg>