<svg xmlns="http://www.w3.org/2000/svg" viewBox="0 0 496.41 150.99"><defs><style>.cls-1{fill:#fff;fill-rule:evenodd;}</style></defs><g id="Capa_2" data-name="Capa 2"><g id="Capa_1-2" data-name="Capa 1"><path class="cls-1" d="M10.34,134.8h4.92v9.48a8.13,8.13,0,0,1-.44,2.67,6,6,0,0,1-1.38,2.19,5.55,5.55,0,0,1-2,1.32A10.07,10.07,0,0,1,8,151a23.7,23.7,0,0,1-2.54-.16,6.73,6.73,0,0,1-2.3-.65,5.83,5.83,0,0,1-1.69-1.37,4.86,4.86,0,0,1-1-1.83,9.36,9.36,0,0,1-.46-2.7V134.8H4.92v9.71a2.79,2.79,0,0,0,.71,2,2.7,2.7,0,0,0,2,.74,2.68,2.68,0,0,0,2-.73,2.76,2.76,0,0,0,.72-2V134.8Zm8.21,0h4.59l6,8.79V134.8h4.64v15.92H29.12L23.18,142v8.74H18.55V134.8Zm18.68,0h4.94v15.92H37.23V134.8Zm6.9,0h5.15l3.58,11.46L56.4,134.8h5l-5.91,15.92H50.15l-6-15.92Zm18.86,0H76.16v3.4H67.93v2.54h7.63V144H67.93v3.14H76.4v3.6H63V134.8Zm16.13,15.92V134.8h8.2a12,12,0,0,1,3.49.39,3.74,3.74,0,0,1,1.94,1.45,4.88,4.88,0,0,1,.17,4.87,4.32,4.32,0,0,1-1.55,1.57,6.2,6.2,0,0,1-1.73.63,5,5,0,0,1,1.28.59,4.66,4.66,0,0,1,.78.83,7.12,7.12,0,0,1,.69,1l2.39,4.6H89.22l-2.63-4.85a3.71,3.71,0,0,0-.89-1.23,2.11,2.11,0,0,0-1.21-.37h-.43v6.45Zm4.94-9.45h2.08a7,7,0,0,0,1.3-.22,1.25,1.25,0,0,0,.8-.5,1.47,1.47,0,0,0,.31-.93,1.44,1.44,0,0,0-.49-1.18,2.9,2.9,0,0,0-1.84-.42H84.06v3.25Zm11.45,4.19,4.67-.3a3.51,3.51,0,0,0,.62,1.73,2.61,2.61,0,0,0,2.17,1,2.38,2.38,0,0,0,1.62-.49,1.43,1.43,0,0,0,0-2.25,6.34,6.34,0,0,0-2.52-.93,10.59,10.59,0,0,1-4.61-1.93,3.86,3.86,0,0,1-1.39-3.07,4.2,4.2,0,0,1,.71-2.31A4.78,4.78,0,0,1,99,135.15a10.13,10.13,0,0,1,3.92-.62,8,8,0,0,1,4.65,1.14,4.87,4.87,0,0,1,1.9,3.61l-4.62.28a2.17,2.17,0,0,0-2.41-2.07,2,2,0,0,0-1.3.36,1.14,1.14,0,0,0-.43.89.9.9,0,0,0,.35.68,4.13,4.13,0,0,0,1.65.59,20.63,20.63,0,0,1,4.61,1.4,4.83,4.83,0,0,1,2,1.77,4.42,4.42,0,0,1,.64,2.36,5.07,5.07,0,0,1-.85,2.82,5.28,5.28,0,0,1-2.37,2,9.43,9.43,0,0,1-3.83.67c-2.7,0-4.58-.52-5.62-1.56a6.21,6.21,0,0,1-1.77-4Zm17.11-10.66h4.94v15.92h-4.94V134.8Zm8.52,0h7.32a8.82,8.82,0,0,1,3.49.58,5.85,5.85,0,0,1,2.2,1.69,6.93,6.93,0,0,1,1.26,2.55,11.87,11.87,0,0,1,.39,3.08,10.61,10.61,0,0,1-.58,4,6.64,6.64,0,0,1-1.61,2.36,5.23,5.23,0,0,1-2.22,1.27,11.4,11.4,0,0,1-2.93.43h-7.32V134.8Zm4.92,3.6v8.7h1.21a5.25,5.25,0,0,0,2.2-.34,2.37,2.37,0,0,0,1-1.2,7.41,7.41,0,0,0,.37-2.76,5.4,5.4,0,0,0-.82-3.47,3.54,3.54,0,0,0-2.75-.93Zm21.16,9.7h-5.58l-.8,2.62h-5l6-15.92h5.39l6,15.92H148l-.8-2.62Zm-1-3.45-1.74-5.72-1.75,5.72Zm8.61-9.85h7.31a8.75,8.75,0,0,1,3.49.58,5.89,5.89,0,0,1,2.21,1.69,7.07,7.07,0,0,1,1.25,2.55,11.45,11.45,0,0,1,.4,3.08,10.58,10.58,0,0,1-.59,4,6.39,6.39,0,0,1-1.61,2.36,5.23,5.23,0,0,1-2.22,1.27,11.28,11.28,0,0,1-2.93.43h-7.31V134.8Zm4.91,3.6v8.7h1.21a5.22,5.22,0,0,0,2.2-.34,2.34,2.34,0,0,0,1-1.2,7.41,7.41,0,0,0,.37-2.76,5.39,5.39,0,0,0-.83-3.47,3.52,3.52,0,0,0-2.75-.93Zm18.63-3.6h15v3.93h-5v12h-4.91v-12h-5V134.8Zm17.17,0h13.17v3.4h-8.23v2.54h7.63V144h-7.63v3.14h8.48v3.6H195.5V134.8Zm26.68,9.41,4.31,1.3a7.84,7.84,0,0,1-1.37,3,5.85,5.85,0,0,1-2.32,1.83,8.72,8.72,0,0,1-3.53.62,10.29,10.29,0,0,1-4.24-.75,6.71,6.71,0,0,1-2.84-2.66,8.93,8.93,0,0,1-1.2-4.86,8.28,8.28,0,0,1,2.1-6.07,9.58,9.58,0,0,1,10.69-.9,7.17,7.17,0,0,1,2.56,3.74l-4.34,1a3.54,3.54,0,0,0-.48-1.06,2.85,2.85,0,0,0-2.35-1.17,2.9,2.9,0,0,0-2.57,1.34,5.71,5.71,0,0,0-.67,3.13,5.94,5.94,0,0,0,.8,3.63,3.17,3.17,0,0,0,4.4.18,4.88,4.88,0,0,0,1.05-2.29Zm6.73-9.41h4.6l6,8.79V134.8h4.65v15.92h-4.65L233.54,142v8.74h-4.63V134.8Zm17.86,8a7.55,7.55,0,0,1,8.23-8.24,8.36,8.36,0,0,1,6.13,2.13,8.08,8.08,0,0,1,2.15,6,9.76,9.76,0,0,1-.94,4.58,6.74,6.74,0,0,1-2.72,2.78,9,9,0,0,1-4.43,1,10.25,10.25,0,0,1-4.46-.86,6.76,6.76,0,0,1-2.86-2.71,9,9,0,0,1-1.1-4.65Zm4.92,0a5.3,5.3,0,0,0,.9,3.46A3,3,0,0,0,255,147.3a3.06,3.06,0,0,0,2.46-1,5.89,5.89,0,0,0,.87-3.71,4.89,4.89,0,0,0-.91-3.28,3.09,3.09,0,0,0-2.46-1,3,3,0,0,0-2.4,1.06,5.34,5.34,0,0,0-.9,3.48Zm14.23-8h4.92v12h7.7v3.91H265.92V134.8Zm14.22,8a7.53,7.53,0,0,1,8.22-8.24,8.34,8.34,0,0,1,6.13,2.13,8,8,0,0,1,2.15,6,9.76,9.76,0,0,1-.94,4.58A6.72,6.72,0,0,1,293,150a9,9,0,0,1-4.43,1,10.22,10.22,0,0,1-4.46-.86,6.71,6.71,0,0,1-2.86-2.71,9,9,0,0,1-1.1-4.65Zm4.91,0a5.3,5.3,0,0,0,.9,3.46,3,3,0,0,0,2.45,1.06,3.08,3.08,0,0,0,2.46-1,5.89,5.89,0,0,0,.87-3.71,4.94,4.94,0,0,0-.91-3.28,3.13,3.13,0,0,0-2.47-1A3,3,0,0,0,286,139.3a5.28,5.28,0,0,0-.91,3.48Zm3.23-12.19h3.8l-3.51,3.25h-2.11l1.82-3.25Zm19,14.37v-3.31h7.6v6.77a15.61,15.61,0,0,1-3.86,2,13,13,0,0,1-4,.54,9.6,9.6,0,0,1-4.62-1,6.63,6.63,0,0,1-2.77-2.87,9.43,9.43,0,0,1-1-4.39,9.2,9.2,0,0,1,1.07-4.53,7,7,0,0,1,3.15-2.93,10.32,10.32,0,0,1,4.36-.77,12.16,12.16,0,0,1,3.94.48,5,5,0,0,1,2.17,1.48,6.54,6.54,0,0,1,1.3,2.55l-4.74.85a2.56,2.56,0,0,0-1-1.39,3.1,3.1,0,0,0-1.79-.48,3.22,3.22,0,0,0-2.57,1.13,5.38,5.38,0,0,0-1,3.55,5.57,5.57,0,0,0,1,3.69,3.39,3.39,0,0,0,2.7,1.11,5.17,5.17,0,0,0,1.58-.24,9.1,9.1,0,0,0,1.71-.81V145ZM318,134.8H323v15.92H318V134.8Zm19.06,9.41,4.32,1.3a8,8,0,0,1-1.37,3,6,6,0,0,1-2.32,1.83,8.76,8.76,0,0,1-3.53.62,10.34,10.34,0,0,1-4.25-.75,6.82,6.82,0,0,1-2.84-2.66,9,9,0,0,1-1.19-4.86,8.28,8.28,0,0,1,2.1-6.07,9.58,9.58,0,0,1,10.69-.9,7.1,7.1,0,0,1,2.55,3.74l-4.33,1a4.13,4.13,0,0,0-.48-1.06,3,3,0,0,0-1-.86,2.84,2.84,0,0,0-1.34-.31,2.9,2.9,0,0,0-2.57,1.34,5.7,5.7,0,0,0-.68,3.13,5.93,5.93,0,0,0,.81,3.63,2.78,2.78,0,0,0,2.26,1,2.73,2.73,0,0,0,2.13-.8,4.79,4.79,0,0,0,1.05-2.29Zm16.49,3.89H348l-.8,2.62h-5l6-15.92h5.38l6,15.92h-5.15l-.8-2.62Zm-1-3.45-1.74-5.72-1.74,5.72Zm16-9.85h4.59l6,8.79V134.8h4.65v15.92H379.1L373.17,142v8.74h-4.63V134.8Zm28.06,13.3H391l-.8,2.62h-5l6-15.92h5.38l6,15.92H397.4l-.8-2.62Zm-1-3.45-1.74-5.72-1.74,5.72Zm18.75-.44,4.32,1.3a8,8,0,0,1-1.37,3,5.92,5.92,0,0,1-2.32,1.83,8.76,8.76,0,0,1-3.53.62,10.34,10.34,0,0,1-4.25-.75,6.82,6.82,0,0,1-2.84-2.66,9,9,0,0,1-1.19-4.86,8.28,8.28,0,0,1,2.1-6.07,9.58,9.58,0,0,1,10.69-.9,7.1,7.1,0,0,1,2.55,3.74l-4.33,1a3.81,3.81,0,0,0-.48-1.06,3,3,0,0,0-1-.86,2.84,2.84,0,0,0-1.34-.31,2.9,2.9,0,0,0-2.57,1.34,5.7,5.7,0,0,0-.68,3.13,5.93,5.93,0,0,0,.81,3.63,3.17,3.17,0,0,0,4.4.18,4.79,4.79,0,0,0,1-2.29Zm6.9-9.41h4.93v15.92h-4.93V134.8Zm7.83,8a7.53,7.53,0,0,1,8.23-8.24,8.31,8.31,0,0,1,6.12,2.13,8,8,0,0,1,2.15,6,9.9,9.9,0,0,1-.93,4.58,6.8,6.8,0,0,1-2.72,2.78,9,9,0,0,1-4.43,1,10.22,10.22,0,0,1-4.46-.86,6.71,6.71,0,0,1-2.86-2.71,9,9,0,0,1-1.1-4.65Zm4.92,0a5.36,5.36,0,0,0,.89,3.46,3.41,3.41,0,0,0,4.91,0,5.89,5.89,0,0,0,.87-3.71,4.94,4.94,0,0,0-.91-3.28,3.13,3.13,0,0,0-2.47-1,3,3,0,0,0-2.39,1.06,5.34,5.34,0,0,0-.9,3.48Zm14.28-8h4.59l6,8.79V134.8h4.65v15.92H458.8L452.86,142v8.74h-4.62V134.8Zm28.06,13.3h-5.58l-.8,2.62h-5l6-15.92h5.39l6,15.92H477.1l-.8-2.62Zm-1-3.45-1.74-5.72-1.75,5.72Zm8.54-9.85h4.92v12h7.69v3.91H483.8V134.8ZM205.23,3.24H240.3V70.91a57,57,0,0,1-3.15,19,41,41,0,0,1-9.84,15.66,39.46,39.46,0,0,1-14,9.41q-10.23,3.77-24.57,3.78a155.3,155.3,0,0,1-18.08-1.16,47.23,47.23,0,0,1-16.4-4.6,40.77,40.77,0,0,1-12-9.79,35.92,35.92,0,0,1-7.49-13.09,67.7,67.7,0,0,1-3.25-19.2V3.24h35.07V72.53q0,9.27,5.13,14.49t14.28,5.23q9,0,14.17-5.15c3.41-3.41,5.13-8.28,5.13-14.57V3.24Zm50.3,0H362.31V31.33H326.46v85.52H291.39V31.33H255.53V3.24Zm122.84,0h32.76L453.73,66V3.24H486.9V116.85H453.73L411.37,54.46v62.39h-33V3.24ZM6.43,47.86h36A46.69,46.69,0,0,1,6.94,2.54C6.94,1.69,7,.84,7,0H26.24c-.08.84-.12,1.69-.12,2.54A27.5,27.5,0,0,0,44.34,28.43V.07h18.6V28.42A27.51,27.51,0,0,0,81.11,2.54c0-.85,0-1.7-.12-2.54h19.22c.05.84.07,1.69.07,2.54A46.69,46.69,0,0,1,64.8,47.86H99.58V67.47H64.8a46.67,46.67,0,0,1,35.48,45.31c0,.86,0,1.71-.07,2.55H81q.12-1.26.12-2.55A27.51,27.51,0,0,0,62.94,86.91v28.35H44.34V86.89a27.51,27.51,0,0,0-18.22,25.89q0,1.29.12,2.55H7c0-.84-.07-1.69-.07-2.55A46.68,46.68,0,0,1,42.43,67.47h-36Z"/></g></g></svg>